<svg width="640" height="480" xmlns="http://www.w3.org/2000/svg" style="vector-effect: non-scaling-stroke;">
 <!-- Created with SVG-edit - http://svg-edit.googlecode.com/ -->
 <g>
  <title>Layer 1</title>
  <path stroke="#000000" id="svg_7" d="m268.13623,254.052231q40.649414,27.918991 81.202698,0m-72.395325,-55.139938c0,-4.312134 3.497284,-7.811737 7.814026,-7.811737c4.312134,0 7.809448,3.499603 7.809448,7.811737c0,4.316711 -3.497314,7.814026 -7.809448,7.814026c-4.316742,0 -7.814026,-3.497314 -7.814026,-7.814026m48.05603,0c0,-4.312134 3.497314,-7.811737 7.814026,-7.811737c4.312134,0 7.809448,3.499603 7.809448,7.811737c0,4.316711 -3.497314,7.814026 -7.809448,7.814026c-4.316711,0 -7.814026,-3.497314 -7.814026,-7.814026m-91.213989,22.432709l0,0c0,-41.420746 33.576965,-75 75,-75c41.423035,0 75,33.579254 75,75c0,41.420746 -33.576965,75 -75,75c-41.423035,0 -75,-33.579254 -75,-75zm0,0l0,0c0,-41.420746 33.576965,-75 75,-75c41.423035,0 75,33.579254 75,75c0,41.420746 -33.576965,75 -75,75c-41.423035,0 -75,-33.579254 -75,-75z" stroke-width="5" fill="none"/>
 </g>
</svg>